<svg xmlns="http://www.w3.org/2000/svg" width="143.99" height="50.1" viewBox="0 0 143.99 50.1">
  <g id="Grupo_895" data-name="Grupo 895" transform="translate(-580.404 -435.938)">
    <g id="Grupo_889" data-name="Grupo 889" transform="translate(580.404 435.938)">
      <g id="Grupo_888" data-name="Grupo 888">
        <g id="Grupo_887" data-name="Grupo 887">
          <g id="Grupo_886" data-name="Grupo 886">
            <g id="Grupo_885" data-name="Grupo 885">
              <g id="Grupo_884" data-name="Grupo 884">
                <path id="Caminho_1185" data-name="Caminho 1185" d="M694.751,452.773c.081-.39.222-.554.654-.543,1.249,0,2.326,0,3.537,0,.513,0,.581.121.467.593q-1.691,7.016-3.348,14.039c-.481,2.024-.941,3.969-1.426,5.992a11.235,11.235,0,0,0-.187,2.974c-.018,1.937,0,3.849,0,5.786a.494.494,0,0,1-.489.493c-.8,0-2.9-.007-3.689-.007a.486.486,0,0,1-.49-.463c0-1.372.019-4.424.019-5.807a10.945,10.945,0,0,0-.256-2.971c-.3-1.324-.576-2.371-1.041-4.187-1.343-5.252-2.466-10.556-3.712-15.832-.111-.472-.03-.606.486-.609,1.2-.007,2.218,0,3.473,0,.457,0,.6.14.69.572.85,4.242,1.724,8.177,2.591,12.416C692.247,464.223,694.223,455.324,694.751,452.773Z" transform="translate(-620.183 -442.147)" fill="#fff"/>
                <path id="Caminho_1186" data-name="Caminho 1186" d="M804.246,475.677a7.2,7.2,0,0,1-7.19,6.536c-4.068,0-7.18-3.544-7.184-6.651q-.011-8.287,0-16.573a6.7,6.7,0,0,1,6.986-6.636c4.422.029,7.388,2.961,7.388,6.61Zm-4.656-8.555h.005c0-2.247,0-5.594,0-7.842,0-1.713-.942-2.741-2.491-2.741a2.431,2.431,0,0,0-2.57,2.741c-.006,4.977-.009,10.688,0,15.666,0,1.511.509,3.008,2.52,3.008,2.1,0,2.533-1.709,2.533-3.011C799.59,472.445,799.59,469.621,799.59,467.122Z" transform="translate(-660.256 -442.195)" fill="#fff"/>
                <path id="Caminho_1187" data-name="Caminho 1187" d="M720.793,466.807c0-2.961,0-6.227,0-9.189,0-1.6.021-3.2-.013-4.794-.011-.491.144-.58.6-.581,1.312,0,1.861,0,3.533,0,.392,0,.545.077.545.514,0,9.892-.012,19.219,0,28.829,0,.42-.122.535-.532.527-1.432,0-2.3,0-3.658,0a.706.706,0,0,1-.853-.637c-1.294-4.844-4.1-14.922-4.255-15.354.007.186,0,.506,0,.689,0,4.878-.012,9.757.008,14.635,0,.514-.12.685-.655.666-1.449,0-1.99-.006-3.532-.006-.349,0-.494-.093-.478-.459.023-.525.005-1.051.005-1.577V453.142c0-.888,0-.888.918-.888,1.41,0,2.08-.016,3.721-.016a.722.722,0,0,1,.845.655C718.158,457.248,720.793,466.807,720.793,466.807Z" transform="translate(-630.38 -442.152)" fill="#fff"/>
                <path id="Caminho_1188" data-name="Caminho 1188" d="M763.106,467.172c0-2.628,0-5.255,0-7.883a6.719,6.719,0,0,1,6.914-7.05c5.021,0,7.505,3.16,7.463,7.317-.013,1.35-.009,2.028.012,3.378.006.407-.07.534-.579.534-1.23,0-2.406-.007-3.61,0-.413,0-.481-.16-.484-.541-.012-1.28-.044-1.987-.044-3.383,0-1.462-.522-3.046-2.5-3.046-2.271,0-2.508,2.071-2.508,2.981,0,4.9,0,10.48,0,15.379,0,2.193,1.053,3.036,2.548,3.036,1.854,0,2.5-1.306,2.5-3.057,0-1.264.029-2.606,0-3.87-.009-.452.134-.557.569-.557,1.642,0,1.841.011,3.523.011.429,0,.574.07.574.516a34.89,34.89,0,0,1-.152,5.682,7.143,7.143,0,0,1-7.022,5.505,7.061,7.061,0,0,1-7.2-6.5c-.032-2.817-.007-5.635-.007-8.452Z" transform="translate(-650.052 -442.152)" fill="#fff"/>
                <path id="Caminho_1189" data-name="Caminho 1189" d="M738.332,467.17c0-4.752,0-9.5-.009-14.254,0-.436.058-.616.565-.616q6.149.007,12.3-.051c.449,0,.636.077.616.578-.04,1.029-.039,2.061,0,3.09.019.493-.153.585-.611.585-2.754,0-4.581-.024-7.568-.024-.536-.007-.655.145-.648.661.03,2.228.025,4.457,0,6.686,0,.444.118.559.558.555,2.816,0,4.51-.022,7.631-.022.49,0,.657.113.636.624,0,1.144,0,1.749,0,3.026.016.463-.105.611-.59.606-2.6,0-4.9-.022-7.632-.022-.45,0-.609.08-.6.576q.041,4.068,0,8.136c0,.468.112.6.588.593,2.544-.025,5.088,0,7.631-.022.468,0,.622.117.6.6,0,1.471-.023,2.061,0,3.09.007.38-.054.56-.506.557q-6.244-.026-12.488,0c-.493,0-.475-.233-.475-.574Q738.336,474.36,738.332,467.17Z" transform="translate(-640.606 -442.156)" fill="#fff"/>
                <path id="Caminho_1190" data-name="Caminho 1190" d="M664.676,473.215c.411,0,.5.13.5.508a9.1,9.1,0,0,0,.215,2.44,2.262,2.262,0,0,0,2.438,1.753,2.461,2.461,0,0,0,2.444-1.758,9.734,9.734,0,0,0-.035-4.762,2.728,2.728,0,0,0-2.75-2.16,8.62,8.62,0,0,1-5.384-2.146,5.819,5.819,0,0,1-1.657-4.2,36.99,36.99,0,0,1,.127-4.977c.32-3.107,2.844-5.689,7.113-5.689,4.18,0,7.2,2.328,7.2,6.85.009.546.008,1.052.008,1.639,0,.335-.108.435-.434.431l-3.783,0c-.371.006-.461-.129-.453-.474a8.5,8.5,0,0,0-.17-2.525,2.253,2.253,0,0,0-2.443-1.665,2.309,2.309,0,0,0-2.444,1.77,11.754,11.754,0,0,0,.065,5.641,3.226,3.226,0,0,0,2.777,1.675,8.475,8.475,0,0,1,5.263,2.194,5.463,5.463,0,0,1,1.528,3.346,23.688,23.688,0,0,1,.009,5.284,6.7,6.7,0,0,1-6.941,5.739c-5.188,0-7.4-3.262-7.4-6.693-.02-.57-.01-1.2-.01-1.758,0-.344.124-.469.639-.469Z" transform="translate(-610.906 -442.148)" fill="#fff"/>
                <path id="Caminho_1191" data-name="Caminho 1191" d="M580.4,466.285a.249.249,0,0,1,.251-.252c2.426,0,2.915.006,7.095.006.4.006.457-.061.464-.467a16.407,16.407,0,0,1,2.374-8.521,16.955,16.955,0,0,1,12-8.255,17.2,17.2,0,0,1,17.18,7.328.548.548,0,0,1-.151.761c-1.078.683-2.007,1.277-3.125,1.979a.5.5,0,0,1-.7-.134,12.361,12.361,0,0,0-7.737-5.285,12.618,12.618,0,0,0-14.617,16.376c.129.4.223.51-.2.507-2.248-.015-4.593,0-6.841,0-.237,0-.663,0-.943,0a21.776,21.776,0,0,0,1.364,4.021,20.2,20.2,0,0,0,15.628,11.665,20.433,20.433,0,0,0,20-9.021.5.5,0,0,1,.674-.14c.074.052,3.059,1.918,3.131,1.963a.488.488,0,0,1,.176.661,25.32,25.32,0,0,1-16.046,10.9,25.057,25.057,0,0,1-29.805-21.42C580.472,468.01,580.417,466.985,580.4,466.285Z" transform="translate(-580.404 -440.753)" fill="#fff"/>
                <path id="Caminho_1192" data-name="Caminho 1192" d="M609.672,436.241A25.013,25.013,0,0,1,626.71,447.22a.476.476,0,0,1-.148.694c-1.249.784-1.831,1.145-3.142,1.975a.527.527,0,0,1-.7-.123,20.608,20.608,0,0,0-11.811-8.5,20.284,20.284,0,0,0-25.33,16.479.475.475,0,0,1-.738.358c-.048-.027-2.232-1.4-3.317-2.1a.522.522,0,0,1-.185-.57,25.074,25.074,0,0,1,18.806-18.864,21.974,21.974,0,0,1,3.242-.523A26.1,26.1,0,0,1,609.672,436.241Z" transform="translate(-580.753 -435.938)" fill="#fff"/>
                <path id="Caminho_1193" data-name="Caminho 1193" d="M615.211,461.239a9.25,9.25,0,0,1,7.568,3.891.589.589,0,0,1-.139.766c-.929.59-2.127,1.341-3.1,1.956a.543.543,0,0,1-.707-.119,4.747,4.747,0,0,0-8.417,1.984,4.746,4.746,0,0,0,8.431,3.785.57.57,0,0,1,.779-.123c.225.163,3,1.9,3.065,1.936a.474.474,0,0,1,.1.674,9.363,9.363,0,1,1-8.85-14.661A11.117,11.117,0,0,1,615.211,461.239Z" transform="translate(-590.06 -445.583)" fill="#fff"/>
                <path id="Caminho_1194" data-name="Caminho 1194" d="M611.909,497.762a16.98,16.98,0,0,1-14.16-7.544.533.533,0,0,1,.152-.726l3.011-1.909a.589.589,0,0,1,.726.125.792.792,0,0,1,.071.1,12.122,12.122,0,0,0,8.81,5.242,12.514,12.514,0,0,0,11.857-5.466.448.448,0,0,1,.663-.137c.558.353,2.113,1.313,3.191,2a.532.532,0,0,1,.135.717,16.923,16.923,0,0,1-10.75,7.222A19.376,19.376,0,0,1,611.909,497.762Z" transform="translate(-586.984 -455.538)" fill="#fff"/>
              </g>
            </g>
          </g>
        </g>
      </g>
    </g>
  </g>
</svg>
