<svg xmlns="http://www.w3.org/2000/svg" xmlns:xlink="http://www.w3.org/1999/xlink" width="251.341" height="303.427" viewBox="0 0 251.341 303.427">
  <defs>
    <clipPath id="clip-path">
      <rect id="Retângulo_1049" data-name="Retângulo 1049" width="251.341" height="303.427" fill="#fff"/>
    </clipPath>
  </defs>
  <g id="Grupo_937" data-name="Grupo 937" clip-path="url(#clip-path)">
    <path id="Caminho_1216" data-name="Caminho 1216" d="M250.526,141.6a26.879,26.879,0,0,0-6.755-25.279,27.9,27.9,0,0,0-20.223-8.249H199.859v-14a6.714,6.714,0,0,0-6.714-6.714H6.716A6.715,6.715,0,0,0,0,94.074v52.491a99.377,99.377,0,0,0,42.823,81.586l6.065,4.208H3.922a3.849,3.849,0,0,0-3.849,3.849v5.73a3.85,3.85,0,0,0,3.849,3.851H195.937a3.851,3.851,0,0,0,3.851-3.851v-5.73a3.85,3.85,0,0,0-3.851-3.849H150.971l6.067-4.208a100.033,100.033,0,0,0,23.509-22.842l.7-.951h16a48.138,48.138,0,0,0,46.7-36.461Zm-64.1,4.966a85.794,85.794,0,0,1-85.794,85.794H99.223a85.794,85.794,0,0,1-85.794-85.794V100.789h173Zm51.069-8.223-6.574,26.291a34.713,34.713,0,0,1-33.676,26.293h-7.8l1.492-3.27a98.226,98.226,0,0,0,8.92-41.092V121.5h23.9a14.252,14.252,0,0,1,10.417,4.211,13.518,13.518,0,0,1,3.325,12.628" transform="translate(0 57.641)" fill="#fff"/>
    <path id="Caminho_1217" data-name="Caminho 1217" d="M171.43,3.85A3.853,3.853,0,0,0,167.581,0h-5.73A3.854,3.854,0,0,0,158,3.85V15.739a55.492,55.492,0,0,1-55.429,55.429h-31.4A27.459,27.459,0,0,0,43.741,98.6V113.15A3.853,3.853,0,0,0,47.592,117h5.73a3.853,3.853,0,0,0,3.849-3.849V98.6a14.015,14.015,0,0,1,14-14h31.4A68.936,68.936,0,0,0,171.43,15.739Z" transform="translate(28.861 0.001)" fill="#fff" opacity="0"/>
    <path id="Caminho_1218" data-name="Caminho 1218" d="M146.472,3.85A3.853,3.853,0,0,0,142.623,0H136.89a3.853,3.853,0,0,0-3.849,3.849V18.4a14.017,14.017,0,0,1-14,14h-31.4a68.938,68.938,0,0,0-68.86,68.86V113.15A3.853,3.853,0,0,0,22.631,117h5.73a3.853,3.853,0,0,0,3.849-3.849V101.262A55.492,55.492,0,0,1,87.639,45.835h31.4A27.463,27.463,0,0,0,146.472,18.4Z" transform="translate(12.392 0.001)" fill="#fff" opacity="0"/>
  </g>
</svg>
